<svg xmlns="http://www.w3.org/2000/svg" viewBox="55 5 22 22">
	<path d="m 57.5 5 c -1.3672 0 -2.5 1.1328 -2.5 2.5 l 0 17 c 0 1.3672 1.1328 2.5 2.5 2.5 l 17 0 c 1.3672 0 2.5 -1.1328 2.5 -2.5 l 0 -17 c 0 -1.3672 -1.1328 -2.5 -2.5 -2.5 z m 0 2 l 17 0 c 0.2852 0 0.5 0.2148 0.5 0.5 l 0 17 c 0 0.2852 -0.2148 0.5 -0.5 0.5 l -17 0 c -0.2852 0 -0.5 -0.2148 -0.5 -0.5 l 0 -17 c 0 -0.2852 0.2148 -0.5 0.5 -0.5 z M 58 8 l 5.5 8 l -5.5 8 l 2 0 l 4.5 -6.65 l 4.5 6.65 l 4 0 l -6 -9.5 l 5.5 -6.5 l -2 0 l -4.45 5.5 l -3.35 -5.5 l -4.7 0 M 60 9 l 2 0 l 9 14 l -2 0 l -9 -14" fill="#FFFF"/>
</svg>